HIERARCHY
ROOT root
{
	OFFSET	0	13.1	24.9
	CHANNELS 6  Xposition Yposition Zposition Xrotation Yrotation Zrotation
	JOINT spine_1
	{
		OFFSET	0	9.99999	0
		CHANNELS 3  Xrotation Yrotation Zrotation
		JOINT spine_2
		{
			OFFSET	0	112	-10
			CHANNELS 3  Xrotation Yrotation Zrotation
			JOINT spine_3
			{
				OFFSET	0	206.5	19.3
				CHANNELS 3  Xrotation Yrotation Zrotation
				JOINT spine_4
				{
					OFFSET	0	110.4	14.6
					CHANNELS 3  Xrotation Yrotation Zrotation
					JOINT neck_1
					{
						OFFSET	0	71.8	-50.3
						CHANNELS 3  Xrotation Yrotation Zrotation
						JOINT neck_2
						{
							OFFSET	0	86.2	-25.8
							CHANNELS 3  Xrotation Yrotation Zrotation
							JOINT head_ee
							{
								OFFSET	0	179.8	-8.7
								CHANNELS 3  Xrotation Yrotation Zrotation
								End Site
								{
									OFFSET	1	0	0
								}
							}
						}
					}
					JOINT left_clavicle
					{
						OFFSET	-43.2	22.4	-70.8
						CHANNELS 3  Xrotation Yrotation Zrotation
						JOINT left_shoulder
						{
							OFFSET	-93.9	-5.79999	48.7
							CHANNELS 3  Xrotation Yrotation Zrotation
							JOINT left_elbow
							{
								OFFSET	-291.4	-30.8	15.2
								CHANNELS 3  Xrotation Yrotation Zrotation
								JOINT left_lowarm_twist
								{
									OFFSET	-110.7	-3.89999	13.6
									CHANNELS 3  Xrotation Yrotation Zrotation
									JOINT left_hand
									{
										OFFSET	-110.7	-3.89999	13.6
										CHANNELS 3  Xrotation Yrotation Zrotation
										JOINT left_ee
										{
											OFFSET	-80.8	-5.10001	12.1
											CHANNELS 3  Xrotation Yrotation Zrotation
											End Site
											{
												OFFSET	1	0	0
											}
										}
									}
								}
							}
						}
					}
					JOINT right_clavicle
					{
						OFFSET	43.2	22.4	-70.8
						CHANNELS 3  Xrotation Yrotation Zrotation
						JOINT right_shoulder
						{
							OFFSET	93.9	-5.79999	48.7
							CHANNELS 3  Xrotation Yrotation Zrotation
							JOINT right_elbow
							{
								OFFSET	291.4	-30.8	15.2
								CHANNELS 3  Xrotation Yrotation Zrotation
								JOINT right_lowarm_twist
								{
									OFFSET	110.7	-3.89999	13.6
									CHANNELS 3  Xrotation Yrotation Zrotation
									JOINT right_hand
									{
										OFFSET	110.7	-3.89999	13.6
										CHANNELS 3  Xrotation Yrotation Zrotation
										JOINT right_ee
										{
											OFFSET	80.8	-5.10001	12.1
											CHANNELS 3  Xrotation Yrotation Zrotation
											End Site
											{
												OFFSET	1	0	0
											}
										}
									}
								}
							}
						}
					}
				}
			}
		}
	}
	JOINT left_hip
	{
		OFFSET	-82.8	-127.5	0.300001
		CHANNELS 3  Xrotation Yrotation Zrotation
		JOINT left_knee
		{
			OFFSET	-28.2	-396.7	2.2
			CHANNELS 3  Xrotation Yrotation Zrotation
			JOINT left_ankle
			{
				OFFSET	-11.7	-411.3	35.4
				CHANNELS 3  Xrotation Yrotation Zrotation
				JOINT left_toes
				{
					OFFSET	0	-60	-88.6
					CHANNELS 3  Xrotation Yrotation Zrotation
					JOINT left_foot_ee
					{
						OFFSET	-22.5	-16.5	-42.2
						CHANNELS 3  Xrotation Yrotation Zrotation
						End Site
						{
							OFFSET	1	0	0
						}
					}
				}
			}
		}
	}
	JOINT right_hip
	{
		OFFSET	82.8	-127.5	0.300001
		CHANNELS 3  Xrotation Yrotation Zrotation
		JOINT right_knee
		{
			OFFSET	28.2	-396.7	2.2
			CHANNELS 3  Xrotation Yrotation Zrotation
			JOINT right_ankle
			{
				OFFSET	11.7	-411.3	35.4
				CHANNELS 3  Xrotation Yrotation Zrotation
				JOINT right_toes
				{
					OFFSET	0	-60	-88.6
					CHANNELS 3  Xrotation Yrotation Zrotation
					JOINT right_foot_ee
					{
						OFFSET	22.5	-16.5	-42.2
						CHANNELS 3  Xrotation Yrotation Zrotation
						End Site
						{
							OFFSET	1	0	0
						}
					}
				}
			}
		}
	}
}
MOTION
Frames: 6
Frame Time: 0.02
988.092590115 726.513 -1543.40125765 7.2888314392 55.0703110299 -4.19191626204 -1.31597 0.306539 0.357369 -1.31594 0.283178 0.37615 -1.31398 0.187951 0.431686 -1.31415 0.253769 0.396585 -8.89677 19.3532 -2.12997 -9.2325 37.7817 2.66015 -0.0 0.0 -0.0 -1.59146 14.96 -0.792191 -23.9427 -0.327773 74.7717 1.12797 -29.1939 0.293758 -82.1989 -8.10007 5.24474 -5.71943 1.31791 -41.0582 -0.0 0.0 -0.0 6.37359 25.718 -10.8856 5.01543 43.5171 -67.2954 0.796082 21.522 -0.151301 31.9254 -0.00284104 4.02596 3.57364 -29.7777 -32.6924 0.0 0.0 0.0 4.72559 35.783 -11.8396 -47.7358 -1.03074 7.04517 36.1705 3.68386 -4.51276 -4.74119 0.0 0.0 -0.0 0.0 -0.0 8.76136 30.3848 -14.5622 -21.8576 -0.268944 -3.32313 18.8641 -11.5749 2.59639 14.7791 -0.0 -0.0 0.0 0.0 0.0 
971.729641967 733.719 -1552.31287869 6.94672092509 49.6204089563 -4.03976306982 -1.44017 0.690168 0.59858 -1.4402 0.650681 0.641284 -1.43264 0.482162 0.775981 -1.43298 0.59866 0.690099 -8.03004 20.3632 -0.965537 -8.24011 38.7749 3.72277 -0.0 0.0 -0.0 -1.73521 15.5221 -0.933393 -24.5983 -0.067236 76.3015 0.771968 -20.9273 0.142572 -82.6313 -8.15459 5.23659 -5.34072 1.30074 -37.7718 -0.0 0.0 -0.0 6.61688 28.0998 -11.1656 7.6674 44.5608 -68.2488 0.847051 22.7629 -0.170513 31.9433 -0.00221448 4.02815 3.34661 -26.1817 -30.6743 0.0 0.0 0.0 19.2428 29.7903 -19.0514 -43.9435 -0.736522 6.54132 30.4485 5.49402 -3.93603 -7.23921 0.0 0.0 -0.0 0.0 -0.0 4.8988 41.7058 -14.1935 -14.598 -0.320863 -2.21121 18.0511 -15.6179 2.51268 13.7503 -0.0 -0.0 0.0 0.0 0.0 
950.946907825 734.461 -1547.83615427 5.89870448343 51.3423982937 -3.1595470475 -0.970731 0.392614 0.602121 -0.970599 0.353505 0.625883 -0.966499 0.202476 0.689707 -0.967029 0.308859 0.649076 -6.78726 20.5205 -1.22539 -6.75034 39.0586 2.99962 -0.0 0.0 -0.0 -1.68808 16.4858 -0.705303 -23.9985 1.3838 76.7806 0.484412 -13.4939 0.0573083 -83.0768 -8.2107 5.22775 -5.385 0.361729 -38.7602 -0.0 0.0 -0.0 6.20179 26.2211 -10.4587 10.2156 45.4468 -68.1005 1.03506 27.1454 -0.249893 33.7326 0.0640163 4.24704 3.63317 -23.3876 -32.1603 0.0 0.0 0.0 20.3909 26.5447 -18.3018 -46.6088 -0.939812 6.89744 29.4815 6.53726 -3.83244 -5.81492 0.0 0.0 -0.0 0.0 -0.0 3.37431 46.7064 -13.499 -11.7357 -0.30257 -1.77247 17.7882 -19.4823 2.50909 15.4165 -0.0 -0.0 0.0 0.0 0.0 
906.126315682 731.905 -1520.80054839 5.56806050472 56.6775881752 -2.9657964941 -1.0636 0.0776297 0.776984 -1.06326 0.0280324 0.780349 -1.06263 -0.150847 0.766144 -1.06345 -0.0279596 0.780351 -3.72401 21.0709 -1.09592 -3.07731 39.4299 2.0158 -0.0 0.0 -0.0 -1.21022 19.0757 0.421169 -24.1637 3.42692 75.3583 0.227095 -6.41873 0.0127338 -84.9249 -8.44254 5.18642 -3.93305 0.861097 -26.8482 -0.0 0.0 -0.0 5.53543 28.0955 -8.80715 9.71631 46.0401 -65.9553 1.47879 36.2223 -0.483684 37.4045 0.221191 4.68928 3.7201 -9.20988 -29.135 0.0 0.0 0.0 20.6932 20.8127 -17.6809 -48.2972 -1.07712 7.11809 24.2153 2.91551 -3.24642 -3.9871 0.0 0.0 -0.0 0.0 -0.0 2.63271 58.6885 -14.3864 -8.16415 -0.249057 -1.22714 16.9989 -26.1077 2.48314 18.1433 -0.0 -0.0 0.0 0.0 0.0 
887.47220066 730.0 -1509.54045144 4.84523839921 58.8298152548 -1.92290993897 -1.11399 -0.0104581 0.81157 -1.11363 -0.0620775 0.809261 -1.11427 -0.245884 0.773499 -1.11509 -0.120642 0.802622 -3.60408 20.8315 -1.43549 -2.93283 39.2188 1.58083 -0.0 0.0 -0.0 -1.73387 20.9773 -0.0566582 -24.6558 2.62704 75.092 0.275306 -7.76617 0.0186869 -85.0387 -8.45677 5.18363 -3.32661 0.89428 -22.3681 -0.0 0.0 -0.0 5.3698 28.3931 -8.41434 10.7566 46.0477 -65.1461 1.69543 40.0224 -0.617501 37.7028 0.235203 4.72476 3.44202 -7.74847 -26.5836 0.0 0.0 0.0 21.3841 16.3143 -16.8584 -47.5072 -1.01206 7.01535 22.1926 2.27623 -3.00863 -4.35329 0.0 0.0 -0.0 0.0 -0.0 3.0805 65.8528 -15.1403 -5.88307 -0.19713 -0.880963 17.0841 -27.6212 2.51815 18.928 -0.0 -0.0 0.0 0.0 0.0 
866.501156778 725.931 -1496.8345418 4.06667022946 58.7735746443 -0.776192592083 -0.873512 0.425987 0.775176 -0.873256 0.375799 0.80071 -0.867638 0.18607 0.864715 -0.868538 0.320296 0.824481 -2.18895 20.5404 -2.28366 -1.22297 39.047 0.103883 -0.0 0.0 -0.0 -1.82142 21.7181 -0.0621836 -25.2954 2.27535 74.6992 0.199289 -5.63822 0.00981353 -85.2112 -8.47831 5.17934 -2.49981 0.0976518 -16.8987 -0.0 0.0 -0.0 5.52905 29.0509 -8.68862 10.1674 46.1207 -64.394 1.83572 42.278 -0.709831 38.6781 0.282298 4.84024 3.30125 -4.53628 -24.4096 0.0 0.0 0.0 21.3956 14.547 -18.439 -36.0841 -0.236619 5.44232 14.9602 0.077428 -2.10519 -8.37094 0.0 0.0 -0.0 0.0 -0.0 4.96955 73.0842 -16.9947 -5.93647 -0.198503 -0.889042 21.5006 -28.1091 3.12405 18.7277 -0.0 -0.0 0.0 0.0 0.0 
